<?xml version="1.0" encoding="utf-8"?>
<!-- Generator: Adobe Illustrator 19.0.0, SVG Export Plug-In . SVG Version: 6.00 Build 0)  -->
<svg version="1.1" id="Capa_1" xmlns="http://www.w3.org/2000/svg" xmlns:xlink="http://www.w3.org/1999/xlink" x="0px" y="0px"
	 viewBox="94 31 512 512" style="enable-background:new 94 31 512 512;" xml:space="preserve">
<style type="text/css">
	.st0{fill:#5F5F5F;}
</style>
<g>
	<g>
		<path class="st0" d="M531,452.9l-347-347c-4.2-4.2-10.9-4.2-15.1,0c-4.2,4.2-4.2,10.9,0,15.1l347,347c4.2,4.2,10.9,4.2,15.1,0
			S535.2,457.1,531,452.9z"/>
	</g>
</g>
<g>
	<g>
		<path class="st0" d="M515.9,106l-347,347c-4.2,4.2-4.2,10.9,0,15.1c4.2,4.2,10.9,4.2,15.1,0l347-347c4.2-4.2,4.2-10.9,0-15.1
			C526.9,101.8,520.1,101.8,515.9,106z"/>
	</g>
</g>
</svg>
