<?xml version="1.0" encoding="utf-8"?>
<!-- Generator: Adobe Illustrator 19.1.0, SVG Export Plug-In . SVG Version: 6.00 Build 0)  -->
<svg version="1.1" id="Ebene_4" xmlns="http://www.w3.org/2000/svg" xmlns:xlink="http://www.w3.org/1999/xlink" x="0px" y="0px"
	 viewBox="0 0 161 161" style="enable-background:new 0 0 161 161;" xml:space="preserve">
<style type="text/css">
	.st0{fill:#FFFFFF;}
</style>
<g>
	<path class="st0" d="M1.9,70h29.9l11.5-36.3c0.9-2.9,3.7-4.6,6.7-3.6v0c2,0.5,2.8,1.5,3.4,2.9c0.3,0.6,0.6,1.2,0.7,1.8l9.5,69.4
		l14.2-36.7c0,0,0-0.1,0-0.2c0.5-1.3,1.6-2.2,3-3.2h0c2.8-1,6,0.3,7.2,3.1l16.6,40.1L116.9,53c0-2.1,1.1-4,3.1-5v0
		c2-1,4.4-0.6,6,0.8c0.8,0.7,1.4,1.6,1.7,2.6l9.7,19.3l22.4,0c0.5,0,0.9,0.1,1.2,0.2V15.8C161,6.9,154,0,145.1,0H16.3
		C7.4,0,0,6.9,0,15.8v54.4C0.6,70,1.3,70,1.9,70z"/>
	<path class="st0" d="M159.8,81.7l-25.8,0c-1.8,0-3.4-0.9-4.4-2.2c-0.2-0.3-0.5-0.6-0.6-1l-4.6-9.2l-13,57.3
		c-0.7,2.9-3.6,4.8-6.6,4.1c-2-0.5-3.6-2-4.1-3.9L83.1,84l-17,43.7c-1.1,2.8-4.2,4.2-7.2,3.1v0c-1-0.3-1.3-0.8-1.9-1.3
		c-0.8-0.8-1.4-1.9-1.5-3.1l-9.1-66.7l-5.4,17c-0.5,1.5-1.6,2.8-2.9,3.4c-0.8,0.5-1.7,0.9-2.7,0.9H1.9c-0.6,0-1.3-0.3-1.9-0.5v64
		c0,8.9,7.4,16.4,16.3,16.4h128.8c8.9,0,15.9-7.5,15.9-16.4V81.5C160.7,81.6,160.2,81.7,159.8,81.7z"/>
</g>
</svg>
