<?xml version="1.0" encoding="utf-8"?>
<!-- Generator: Adobe Illustrator 19.0.0, SVG Export Plug-In . SVG Version: 6.00 Build 0)  -->
<svg version="1.1"
	 id="svg8" xmlns:dc="http://purl.org/dc/elements/1.1/" xmlns:cc="http://creativecommons.org/ns#" xmlns:rdf="http://www.w3.org/1999/02/22-rdf-syntax-ns#" xmlns:svg="http://www.w3.org/2000/svg" xmlns:sodipodi="http://sodipodi.sourceforge.net/DTD/sodipodi-0.dtd" xmlns:inkscape="http://www.inkscape.org/namespaces/inkscape" sodipodi:docname="AppStore new logo.svg" inkscape:version="0.92.2 (5c3e80d, 2017-08-06)"
	 xmlns="http://www.w3.org/2000/svg" xmlns:xlink="http://www.w3.org/1999/xlink" x="0px" y="0px" viewBox="-67 193.5 187.5 187.5"
	 style="enable-background:new -67 193.5 187.5 187.5;" xml:space="preserve">
<style type="text/css">
	.st0{opacity:0.5;fill:#FFFFFF;}
</style>
<title  id="title907">AppStore new logo</title>
<sodipodi:namedview  id="base" fit-margin-left="0" fit-margin-top="0" showguides="true" showgrid="false" inkscape:cy="114.42009" inkscape:cx="88.039819" inkscape:zoom="1" borderopacity="1.0" bordercolor="#666666" pagecolor="#ffffff" inkscape:current-layer="layer1" inkscape:document-units="px" inkscape:snap-object-midpoints="false" fit-margin-right="0" inkscape:window-x="1358" inkscape:window-y="-8" fit-margin-bottom="0" inkscape:window-maximized="1" inkscape:window-width="1920" inkscape:window-height="1017" inkscape:pageshadow="2" inkscape:pageopacity="0.0" inkscape:guide-bbox="true" inkscape:snap-intersection-paths="false">
	</sodipodi:namedview>
<path id="XMLID_11_" class="st0" d="M79.2,193.5H-25.7c-22.8,0-41.3,18.5-41.3,41.3v104.9c0,22.8,18.5,41.3,41.3,41.3H79.2
	c22.8,0,41.3-18.5,41.3-41.3V234.8C120.5,212,102,193.5,79.2,193.5z M-13.6,342.8c-2.5,3.5-7.3,4.6-11.1,2.4
	c-4.1-2.3-5.4-7.5-3.1-11.6l6.2-10.7c1.4-0.4,2.9-0.5,4.3-0.5c3.8,0,7.7,1.3,10.6,3.8c0.6,0.5,1.2,1.1,1.7,1.7L-13.6,342.8z
	 M44.9,319.3h-76.6c-4.7,0-8.5-3.8-8.5-8.5c0-1.5,0.4-2.8,1-4c1.3-2.4,3.8-4.1,6.6-4.4h22.7l27.1-46.9l-8.5-14.7
	c-2.3-4.1-1-9.2,3.1-11.6c1.3-0.7,2.6-1.1,4-1.1v0c2.7-0.1,5.4,1.2,7.1,3.6l4,7l4-7c1.7-2.4,4.4-3.6,7.1-3.6c1.4,0,2.7,0.4,4,1.1
	c4.1,2.3,5.4,7.5,3.1,11.6L9.7,302.5h26.9c1.9,0,3.6,1.6,5,2.9C46.1,309.1,47.2,314.7,44.9,319.3z M86,319.3H73.6l8.3,14.3
	c2.3,4.1,1,9.2-3.1,11.6c-3.8,2.2-8.6,1.1-11.1-2.4l-32.9-57c-2.7-6.2-2.5-15.3,0.6-21c1.2-2.3,2.7-3.7,4.3-4.3l24.2,42h21.4
	c4.7,0,8.5,3.8,8.5,8.5C93.7,315.3,90.3,318.9,86,319.3z"/>
</svg>
