<?xml version="1.0" standalone="no"?>
<!DOCTYPE svg PUBLIC "-//W3C//DTD SVG 1.1//EN" "http://www.w3.org/Graphics/SVG/1.1/DTD/svg11.dtd" >
<svg xmlns="http://www.w3.org/2000/svg">
<metadata>Generated by IcoMoon</metadata>
<defs>
<font id="wrkFit" horiz-adv-x="1024">
<font-face units-per-em="1024" ascent="960" descent="-64" />
<missing-glyph horiz-adv-x="1024" />
<glyph unicode="&#x20;" horiz-adv-x="512" d="" />
<glyph unicode="&#xe900;" glyph-name="add" d="M533.4-42.6v981.2c0 11.8-9.6 21.4-21.4 21.4s-21.4-9.6-21.4-21.4v-981.4c0-11.8 9.6-21.4 21.4-21.4s21.4 9.8 21.4 21.6zM1002.6 469.4h-981.2c-11.8 0-21.4-9.6-21.4-21.4s9.6-21.4 21.4-21.4h981.4c11.8 0 21.4 9.6 21.4 21.4s-9.8 21.4-21.6 21.4z" />
<glyph unicode="&#xe901;" glyph-name="close" d="M874 116.2l-694 694c-8.4 8.4-21.8 8.4-30.2 0s-8.4-21.8 0-30.2l694-694c8.4-8.4 21.8-8.4 30.2 0s8.4 21.8 0 30.2zM843.8 810l-694-694c-8.4-8.4-8.4-21.8 0-30.2s21.8-8.4 30.2 0l694 694c8.4 8.4 8.4 21.8 0 30.2-8.2 8.4-21.8 8.4-30.2 0z" />
<glyph unicode="&#xe902;" glyph-name="dashboard" d="M999.808 46.786h-975.616c-13.362 0-24.192-10.83-24.192-24.192 0-13.358 10.83-24.192 24.192-24.192h975.616c13.358 0 24.192 10.834 24.192 24.192 0 13.36-10.83 24.192-24.192 24.192zM936.74 783.39h-169.896c-13.358 0-24.192-10.834-24.192-24.192v-164.48h-121.514v278.688c0 13.358-10.834 24.192-24.192 24.192h-169.9c-13.358 0-24.192-10.834-24.192-24.192v-457.764h-121.514v205.638c0 13.362-10.834 24.192-24.192 24.192h-169.896c-13.362 0-24.192-10.83-24.192-24.192v-463.126c0-13.362 10.834-24.192 24.192-24.192h849.486c13.362 0 24.192 10.834 24.192 24.192v601.044c0.002 13.358-10.828 24.192-24.19 24.192zM232.958 182.346h-121.514v414.742h121.514v-414.742zM402.858 182.346h-121.514v184.912h121.514v-184.912zM572.756 570.526v-388.18h-121.516v666.868h121.516v-278.688zM742.656 182.346h-121.514v363.988h121.514v-363.988zM912.552 182.346h-121.512v552.66h121.514v-552.66z" />
<glyph unicode="&#xe903;" glyph-name="down" d="M1017.489 708.631c-8.682 8.682-22.796 8.682-31.478 0l-473.987-474.033-474.033 473.987c-8.682 8.682-22.796 8.682-31.478 0s-8.682-22.796 0-31.478l489.75-489.75c4.364-4.318 10.061-6.501 15.761-6.501s11.397 2.181 15.717 6.545l489.75 489.75c8.68 8.684 8.68 22.798-0.002 31.48z" />
<glyph unicode="&#xe904;" glyph-name="edit" d="M946.208 52.688h-868.416c-18.257 0-32.546-15.082-32.546-32.546s15.082-32.546 32.546-32.546h869.209c18.257 0 32.546 15.082 32.546 32.546s-15.082 32.546-33.34 32.546zM45.247 340.837l-0.794-154.791c0-8.732 3.175-17.464 9.526-23.814s14.288-9.526 23.020-9.526l153.997 0.794c8.732 0 16.67 3.175 23.020 9.526l531.845 531.845c12.701 12.701 12.701 33.34 0 46.834l-152.409 153.997c-12.701 12.701-33.34 12.701-46.834 0l-106.369-107.163-425.476-424.682c-5.557-6.35-9.526-14.288-9.526-23.020zM610.431 825.848l107.163-107.163-60.329-60.329-107.163 107.163 60.329 60.329zM111.132 326.549l392.136 392.136 107.163-107.163-392.136-391.343-107.957-0.794 0.794 107.163z" />
<glyph unicode="&#xe905;" glyph-name="forbidden" d="M874.21 810.21c-199.713 199.713-524.707 199.713-724.421 0-199.733-199.733-199.733-524.688 0-724.421 99.847-99.847 231.038-149.809 362.21-149.809s262.344 49.943 362.21 149.809c199.713 199.733 199.713 524.707 0 724.421zM177.648 782.352c92.183 92.183 213.268 138.284 334.352 138.284 114.899 0 229.502-42.043 319.714-125.045l-667.286-667.286c-170.476 185.252-166.418 474.41 13.22 654.047zM846.352 113.667c-179.657-179.657-468.795-183.716-654.067-13.22l667.286 667.267c170.496-185.252 166.437-474.41-13.22-654.047z" />
<glyph unicode="&#xe906;" glyph-name="home" d="M1013.11 543.872l-485.392 355.394c-9.36 6.852-22.076 6.852-31.432 0l-485.396-355.394c-11.856-8.682-14.432-25.33-5.75-37.186s25.332-14.428 37.186-5.75l469.674 343.888 469.674-343.886c4.736-3.47 10.24-5.14 15.696-5.14 8.192 0 16.276 3.77 21.488 10.89 8.684 11.854 6.108 28.502-5.748 37.184zM884.492 494.914c-14.692 0-26.606-11.912-26.606-26.606v-423.498h-212.844v231.172c0 73.36-59.684 133.040-133.040 133.040s-133.040-59.684-133.040-133.040v-231.174h-212.846v423.498c0 14.694-11.914 26.606-26.606 26.606s-26.606-11.912-26.606-26.606v-450.106c0-14.694 11.914-26.606 26.606-26.606h266.058c13.992 0 25.442 10.81 26.502 24.534 0.064 0.622 0.104 1.302 0.104 2.072v257.78c0 44.018 35.81 79.828 79.828 79.828s79.828-35.812 79.828-79.828v-257.78c0-0.766 0.040-1.434 0.104-2.048 1.048-13.734 12.502-24.558 26.502-24.558h266.058c14.694 0 26.606 11.912 26.606 26.606v450.106c-0.002 14.696-11.914 26.608-26.608 26.608z" />
<glyph unicode="&#xe907;" glyph-name="info" d="M512 960c-282.329 0-512-229.671-512-512s229.671-512 512-512 512 229.671 512 512-229.671 512-512 512zM512-24.615c-260.588 0-472.615 212.027-472.615 472.615s212.027 472.615 472.615 472.615 472.615-212.027 472.615-472.615-212.027-472.615-472.615-472.615zM512 231.385c-10.89 0-19.692-8.802-19.692-19.692v-39.385c0-10.89 8.802-19.692 19.692-19.692s19.692 8.802 19.692 19.692v39.385c0 10.89-8.802 19.692-19.692 19.692zM514.225 782.75c-0.748 0-1.497 0.020-2.265 0.020-41.669 0-80.857-16.049-110.572-45.371-30.247-29.834-46.927-69.671-46.927-112.167 0-10.89 8.802-19.692 19.692-19.692s19.692 8.802 19.692 19.692c0 31.862 12.505 61.755 35.19 84.126 22.705 22.39 52.933 34.757 84.657 34.009 62.247-0.866 115.574-54.193 116.441-116.441 0.571-41.039-19.673-78.809-54.174-101.061-52.382-33.792-83.653-93.499-83.653-159.744v-55.966c0-10.89 8.802-19.692 19.692-19.692s19.692 8.802 19.692 19.692v55.966c0 52.027 25.127 100.529 65.615 126.661 45.982 29.657 72.98 80.010 72.212 134.695-1.182 84.421-70.853 154.092-155.294 155.274z" />
<glyph unicode="&#xe908;" glyph-name="list" d="M110.2 678.227c60.85 0 110.2 49.559 110.2 110.2s-49.349 110.409-110.2 110.409-110.2-49.559-110.2-110.2 49.559-110.409 110.2-110.409zM110.2 847.605c32.621 0 58.968-26.557 58.968-58.968s-26.557-58.968-58.968-58.968-58.968 26.557-58.968 58.968 26.557 58.968 58.968 58.968zM110.2 337.8c60.85 0 110.2 49.559 110.2 110.2s-49.349 110.2-110.2 110.2-110.2-49.349-110.2-110.2 49.559-110.2 110.2-110.2zM110.2 506.968c32.621 0 58.968-26.557 58.968-58.968s-26.557-58.968-58.968-58.968-58.968 26.348-58.968 58.968 26.557 58.968 58.968 58.968zM110.2-2.836c60.85 0 110.2 49.559 110.2 110.2 0 60.85-49.559 110.2-110.2 110.2s-110.2-49.559-110.2-110.2c0-60.641 49.559-110.2 110.2-110.2zM110.2 166.541c32.621 0 58.968-26.557 58.968-58.968 0-32.621-26.557-58.968-58.968-58.968s-58.968 26.557-58.968 58.968c0 32.412 26.557 58.968 58.968 58.968zM367.82 762.916h630.459c14.219 0 25.72 11.501 25.72 25.72s-11.501 25.72-25.72 25.72h-630.459c-14.219 0-25.72-11.501-25.72-25.72s11.501-25.72 25.72-25.72zM367.82 422.28h630.459c14.219 0 25.72 11.501 25.72 25.72s-11.501 25.72-25.72 25.72h-630.459c-14.219 0-25.72-11.501-25.72-25.72s11.501-25.72 25.72-25.72zM367.82 81.853h630.459c14.219 0 25.72 11.501 25.72 25.72s-11.501 25.72-25.72 25.72h-630.459c-14.219 0-25.72-11.501-25.72-25.72s11.501-25.72 25.72-25.72z" />
<glyph unicode="&#xe909;" glyph-name="logo" d="M12.084 514.783h190.171l73.143 230.877c5.724 18.445 23.533 29.257 42.614 22.897v0c12.72-3.18 17.809-9.54 21.625-18.445 1.908-3.816 3.816-7.632 4.452-11.448l60.422-441.401 90.316 233.421c0 0 0 0.636 0 1.272 3.18 8.268 10.176 13.993 19.081 20.353v0c17.809 6.36 38.161-1.908 45.794-19.717l105.58-255.046 78.231 345.361c0 13.357 6.996 25.441 19.717 31.801v0c12.72 6.36 27.985 3.816 38.161-5.088 5.088-4.452 8.904-10.176 10.812-16.537l61.694-122.753h142.47c3.18 0 5.724-0.636 7.632-1.272v350.45c0 56.606-44.522 100.492-101.128 100.492h-819.2c-56.606 0-103.672-43.886-103.672-100.492v-345.998c3.816 1.272 8.268 1.272 12.084 1.272zM1016.368 440.368h-164.094c-11.448 0-21.625 5.724-27.985 13.993-1.272 1.908-3.18 3.816-3.816 6.36l-29.257 58.514-82.683-364.442c-4.452-18.445-22.897-30.529-41.978-26.077-12.72 3.18-22.897 12.72-26.077 24.805l-111.94 272.219-108.124-277.943c-6.996-17.809-26.713-26.713-45.794-19.717v0c-6.36 1.908-8.268 5.088-12.084 8.268-5.088 5.088-8.904 12.084-9.54 19.717l-57.878 424.229-34.345-108.124c-3.18-9.54-10.176-17.809-18.445-21.625-5.088-3.18-10.812-5.724-17.173-5.724h-213.068c-3.816 0-8.268 1.908-12.084 3.18v-407.056c0-56.606 47.066-104.308 103.672-104.308h819.2c56.606 0 101.128 47.702 101.128 104.308v400.696c-1.908-0.636-5.088-1.272-7.632-1.272z" />
<glyph unicode="&#xe90a;" glyph-name="logout" d="M690.087 559.305c12.288 0 22.262 9.974 22.262 22.262v267.13c-0.002 61.35-49.91 111.304-111.306 111.304h-489.739c-61.394 0-111.304-49.953-111.304-111.304v-801.391c0-61.35 49.91-111.304 111.304-111.304h489.739c61.396 0 111.304 49.953 111.304 111.304v267.13c0 12.288-9.974 22.262-22.262 22.262s-22.259-9.974-22.259-22.262v-267.13c0-36.82-29.962-66.783-66.783-66.783h-489.739c-36.82 0-66.783 29.962-66.783 66.783v801.391c0 36.82 29.962 66.783 66.783 66.783h489.739c36.82 0 66.783-29.962 66.783-66.783v-267.13c0-12.288 9.974-22.262 22.262-22.262zM1001.738 470.261h-712.347c-12.288 0-22.262-9.974-22.262-22.262s9.974-22.259 22.262-22.259h712.347c12.288 0 22.262 9.974 22.262 22.262s-9.974 22.259-22.262 22.259zM1017.455 463.672l-133.565 133.565c-8.682 8.682-22.796 8.682-31.478 0s-8.682-22.796 0-31.478l117.804-117.804-117.804-117.804c-8.682-8.682-8.682-22.796 0-31.478 4.364-4.318 10.061-6.501 15.761-6.501s11.397 2.181 15.717 6.455l133.565 133.565c8.682 8.684 8.682 22.798 0 31.48z" />
<glyph unicode="&#xe90b;" glyph-name="menu" d="M1002.666 768h-981.332c-11.776 0-21.334-9.558-21.334-21.334s9.558-21.334 21.334-21.334h981.334c11.776 0 21.334 9.558 21.334 21.334s-9.56 21.334-21.336 21.334zM1002.666 469.334h-981.332c-11.776 0-21.334-9.558-21.334-21.334s9.558-21.334 21.334-21.334h981.334c11.776 0 21.334 9.558 21.334 21.334s-9.56 21.334-21.336 21.334zM1002.666 170.666h-981.332c-11.776 0-21.334-9.556-21.334-21.332s9.558-21.334 21.334-21.334h981.334c11.776 0 21.334 9.558 21.334 21.334-0.002 11.776-9.56 21.332-21.336 21.332z" />
<glyph unicode="&#xe90c;" glyph-name="settings" d="M971.585 555.492l-71.874 12.193c-7.487 24.172-17.113 47.488-28.878 69.735l42.354 59.253c17.969 25.242 15.188 59.681-6.845 81.5l-63.746 63.746c-11.979 11.979-27.808 18.61-44.707 18.61-13.263 0-25.883-4.064-36.579-11.765l-59.467-42.354c-23.102 12.193-47.274 22.247-72.302 29.734l-11.979 71.019c-5.134 30.589-31.445 52.836-62.462 52.836h-90.057c-31.017 0-57.328-22.247-62.462-52.836l-12.407-72.73c-23.958-7.487-47.274-17.327-69.521-29.306l-58.826 42.354c-10.696 7.701-23.53 11.765-36.793 11.765-16.899 0-32.942-6.631-44.707-18.61l-63.959-63.746c-21.819-21.819-24.814-56.259-6.845-81.5l42.782-60.109c-11.765-22.461-21.177-45.777-28.45-69.949l-71.019-11.979c-30.589-5.134-52.836-31.445-52.836-62.462v-90.057c0-31.017 22.247-57.328 52.836-62.462l72.73-12.407c7.487-23.958 17.327-47.274 29.306-69.521l-42.141-58.612c-17.969-25.242-15.188-59.681 6.845-81.5l63.746-63.746c11.979-11.979 27.808-18.61 44.707-18.61 13.263 0 25.883 4.064 36.579 11.765l60.109 42.782c21.605-11.337 44.28-20.535 67.596-27.808l11.979-71.874c5.134-30.589 31.445-52.836 62.462-52.836h90.271c31.017 0 57.328 22.247 62.462 52.836l12.193 71.874c24.172 7.487 47.488 17.113 69.735 28.878l59.253-42.354c10.696-7.701 23.53-11.765 36.793-11.765v0c16.899 0 32.728 6.631 44.707 18.61l63.746 63.746c21.819 21.819 24.814 56.259 6.845 81.5l-42.354 59.467c11.765 22.461 21.605 45.777 28.878 69.735l71.874 11.979c30.589 5.134 52.836 31.445 52.836 62.462v90.057c0.428 31.017-21.819 57.328-52.408 62.462zM966.665 402.973c0-2.781-1.925-5.134-4.706-5.562l-89.843-14.974c-11.337-1.925-20.322-10.268-23.102-21.177-8.129-31.445-20.535-61.606-37.221-89.629-5.776-9.84-5.348-22.033 1.283-31.445l52.836-74.441c1.497-2.139 1.283-5.348-0.642-7.273l-63.746-63.746c-1.497-1.497-2.995-1.711-4.064-1.711-1.283 0-2.353 0.428-3.209 1.070l-74.227 52.836c-9.198 6.631-21.605 7.059-31.445 1.283-28.022-16.685-58.184-29.092-89.629-37.221-11.123-2.781-19.466-11.979-21.177-23.102l-15.188-89.843c-0.428-2.781-2.781-4.706-5.562-4.706h-90.057c-2.781 0-5.134 1.925-5.562 4.706l-14.974 89.843c-1.925 11.337-10.268 20.322-21.177 23.102-30.589 7.915-60.109 20.108-87.704 35.937-4.492 2.567-9.626 3.85-14.546 3.85-5.776 0-11.765-1.711-16.685-5.348l-74.869-53.264c-1.070-0.642-2.139-1.070-3.209-1.070-0.856 0-2.567 0.214-4.064 1.711l-63.746 63.746c-1.925 1.925-2.139 4.92-0.642 7.273l52.622 73.799c6.631 9.412 7.059 21.819 1.283 31.659-16.685 27.808-29.52 57.97-37.648 89.415-2.995 10.909-11.979 19.252-23.102 21.177l-90.484 15.402c-2.781 0.428-4.706 2.781-4.706 5.562v90.057c0 2.781 1.925 5.134 4.706 5.562l89.201 14.974c11.337 1.925 20.535 10.268 23.316 21.391 7.915 31.445 20.108 61.82 36.579 89.843 5.776 9.84 5.134 22.033-1.497 31.231l-53.264 74.869c-1.497 2.139-1.283 5.348 0.642 7.273l63.746 63.746c1.497 1.497 2.995 1.711 4.064 1.711 1.283 0 2.353-0.428 3.209-1.070l73.799-52.622c9.412-6.631 21.819-7.059 31.659-1.283 27.808 16.685 57.97 29.52 89.415 37.648 10.909 2.995 19.252 11.979 21.177 23.102l15.402 90.484c0.428 2.781 2.781 4.706 5.562 4.706h90.057c2.781 0 5.134-1.925 5.562-4.706l14.974-89.201c1.925-11.337 10.268-20.535 21.391-23.316 32.301-8.129 63.104-20.749 91.768-37.648 9.84-5.776 22.033-5.348 31.445 1.283l73.799 53.050c1.070 0.642 2.139 1.070 3.209 1.070 0.856 0 2.567-0.214 4.064-1.711l63.746-63.746c1.925-1.925 2.139-4.92 0.642-7.273l-52.836-74.227c-6.631-9.198-7.059-21.605-1.283-31.445 16.685-28.022 29.092-58.184 37.221-89.629 2.781-11.123 11.979-19.466 23.102-21.177l89.843-15.188c2.781-0.428 4.706-2.781 4.706-5.562v-90.057h-0.214zM512.104 669.078c-121.929 0-220.97-99.041-220.97-220.97s99.041-220.97 220.97-220.97 220.97 99.041 220.97 220.97-99.041 220.97-220.97 220.97zM512.104 284.894c-90.057 0-163.214 73.158-163.214 163.214s73.158 163.214 163.214 163.214 163.214-73.158 163.214-163.214-73.158-163.214-163.214-163.214z" />
<glyph unicode="&#xe90d;" glyph-name="success" d="M512 960c-282.309 0-512-229.671-512-512s229.691-512 512-512 512 229.671 512 512-229.691 512-512 512zM512-24.615c-260.588 0-472.615 212.027-472.615 472.615s212.027 472.615 472.615 472.615 472.615-212.027 472.615-472.615-212.027-472.615-472.615-472.615zM753.27 657.999l-302.651-340.48-182.331 145.861c-8.468 6.794-20.894 5.396-27.668-3.072-6.794-8.507-5.415-20.894 3.072-27.687l196.923-157.538c3.623-2.895 7.975-4.313 12.308-4.313 5.435 0 10.85 2.245 14.73 6.617l315.077 354.462c7.227 8.113 6.498 20.578-1.634 27.786-8.153 7.247-20.578 6.518-27.825-1.634z" />
<glyph unicode="&#xe90e;" glyph-name="text" d="M0 800h1024v-64h-1024v64zM0 672h704v-64h-704v64zM0 544h1024v-64h-1024v64zM0 416h704v-64h-704v64zM0 288h1024v-64h-1024v64zM0 160h704v-64h-704v64z" />
<glyph unicode="&#xe90f;" glyph-name="up" d="M6.469 187.252c8.765-8.765 22.746-8.765 31.511 0l473.916 473.916 473.916-473.916c8.765-8.765 22.746-8.765 31.511 0s8.765 22.746 0 31.511l-489.567 489.775c-4.382 4.382-10.017 6.469-15.86 6.469-5.634 0-11.477-2.087-15.651-6.469l-489.775-489.775c-8.556-8.556-8.556-22.746 0-31.511z" />
<glyph unicode="&#xe910;" glyph-name="user" d="M511.999 446.68c-269.853 0-489.401-219.551-489.401-489.401 0-11.746 9.533-21.279 21.279-21.279s21.279 9.533 21.279 21.279c0 246.403 200.442 446.845 446.845 446.845s446.845-200.442 446.845-446.845c0-11.746 9.533-21.279 21.279-21.279s21.279 9.533 21.279 21.279c-0.002 269.895-219.553 489.401-489.405 489.401zM511.999 960c-129.033 0-234.061-104.987-234.061-234.061s105.031-234.061 234.061-234.061 234.061 104.987 234.061 234.061-105.029 234.061-234.061 234.061zM511.999 534.434c-105.583 0-191.505 85.922-191.505 191.505s85.922 191.505 191.505 191.505c105.583 0 191.505-85.922 191.505-191.505s-85.922-191.505-191.505-191.505z" />
<glyph unicode="&#xe911;" glyph-name="warning" d="M512 960c-282.309 0-512-229.671-512-512s229.691-512 512-512 512 229.671 512 512-229.691 512-512 512zM512-24.615c-260.588 0-472.615 212.027-472.615 472.615s212.027 472.615 472.615 472.615 472.615-212.027 472.615-472.615-212.027-472.615-472.615-472.615zM512 763.077c-10.87 0-19.692-8.802-19.692-19.692v-433.231c0-10.89 8.822-19.692 19.692-19.692s19.692 8.802 19.692 19.692v433.231c0 10.89-8.822 19.692-19.692 19.692zM512 231.385c-10.87 0-19.692-8.802-19.692-19.692v-39.385c0-10.89 8.822-19.692 19.692-19.692s19.692 8.802 19.692 19.692v39.385c0 10.89-8.822 19.692-19.692 19.692z" />
<glyph unicode="&#xe912;" glyph-name="arm" d="M275.164 733.611c10.734 0 19.482-8.615 19.645-19.349l5.554-368.047c16.993 4.836 43.962 6.798 76.576 6.798 49.266 0 111.397-4.481 171.423-10.318 5.703-0.556 11.407-0.829 17.087-0.829 39.27 0 77.561 13.122 108.716 37.586 21.646 16.999 86.163 68.53 86.163 68.53 4.348 3.458 9.538 5.138 14.695 5.138 6.954 0 13.844-3.055 18.507-8.92 8.128-10.214 6.431-25.078-3.783-33.202l-27.369-22.829c-2.632-2.197-3.581-5.82-2.359-9.024 1.189-3.12 4.179-5.17 7.5-5.17 0.088 0 0.179 0 0.266 0.003l152.834 5.047c0.039 0 0.075 0 0.114 0 12.999 0 23.554-7.617 23.599-20.629 0.029-8.495-4.442-13.015-11.156-17.204l18.371 0.065c0.029 0 0.055 0 0.084 0 13.012 0 23.583-10.526 23.629-23.547 0.045-13.051-10.497-23.668-23.547-23.713l-22.517-0.078c6.743-4.143 11.267-11.553 11.296-20.048 0.045-13.051-10.5-23.668-23.551-23.713l-39.211-0.136c6.743-4.143 11.267-8.631 11.296-17.126 0.045-13.051-10.5-17.825-23.547-17.87-3.409-0.013-10.454-0.175-20.678-0.175-28.854 0-82.985 1.303-151.791 10.984-12.502 1.758-25.013 2.642-37.508 2.642-18.172 0-36.306-1.872-54.277-5.638-97.781-20.499-214.686-44.934-317.784-59.242-5.859-0.812-11.686-1.209-17.448-1.209-58.911 0-111.111 41.349-123.473 100.553l-93.345 447.012c-1.209 5.791 0.253 11.816 3.984 16.408s9.33 7.257 15.248 7.257h206.757zM107.878 643.991c12.102 0 21.913 9.811 21.913 21.913s-9.811 21.913-21.913 21.913c-12.102 0-21.913-9.811-21.913-21.913s9.811-21.913 21.913-21.913zM146.757 443.876c1.339 0 2.694 0.123 4.056 0.377 11.894 2.226 19.736 13.672 17.509 25.566l-26.843 143.511c-1.969 10.536-11.195 17.886-21.529 17.883-1.332 0-2.684-0.123-4.039-0.374-11.894-2.226-19.736-13.672-17.509-25.566l26.843-143.511c1.969-10.536 11.173-17.886 21.513-17.886zM275.164 782.357h-206.757c-20.684 0-40.027-9.206-53.074-25.257-13.044-16.050-18.104-36.868-13.873-57.117l93.335-447.009c8.238-39.455 30.031-75.124 61.368-100.436 31.054-25.085 70.057-38.902 109.821-38.902 8.033 0 16.158 0.562 24.152 1.67 105.775 14.679 225.16 39.705 321.085 59.814 14.562 3.051 29.459 4.602 44.274 4.602 10.162 0 20.496-0.728 30.716-2.168 53.273-7.497 108.108-11.459 158.58-11.459 7.146 0 12.918 0.078 16.736 0.13 1.719 0.023 3.094 0.042 4.108 0.045 16.759 0.058 31.389 4.163 43.488 12.199 9.427 6.262 16.772 14.588 21.663 24.279 26.872 5.261 48.447 25.432 55.765 51.489 22.387 12.388 37.544 36.286 37.45 63.63-0.088 25.66-13.633 48.229-33.911 61.017-8.722 28.906-35.682 48.876-69.359 48.876-0.097 0-0.312 0-0.409 0-0.439-0.003-0.874-0.010-1.313-0.026l-71.708-2.369c1.037 17.795-4.439 35.12-15.625 49.178-13.802 17.357-34.454 27.317-56.652 27.317-16.284 0-32.279-5.586-45.038-15.732-0.725-0.578-64.686-51.661-85.926-68.342-22.319-17.529-50.237-27.181-78.611-27.181-4.111 0-8.274 0.201-12.372 0.601-71.978 7-131.24 10.549-176.141 10.549-10.305 0-19.833-0.179-28.656-0.539l-4.735 313.777c-0.556 37.144-31.233 67.363-68.381 67.363v0z" />
<glyph unicode="&#xe913;" glyph-name="head" d="M625.030 370.995c7.701-30.431 32.368-54.582 64.376-60.682l112.87-21.508c59.51-11.342 101.016-65.567 96.42-125.976l-10.696-140.602c-1.557-20.487-18.636-36.311-39.18-36.311h-673.638c-20.543 0-37.622 15.824-39.18 36.311l-10.696 140.602c-4.596 60.409 36.907 114.634 96.42 125.976l112.87 21.508c30.098 5.734 53.68 27.452 62.795 55.324 34.135-28.334 71.794-43.33 110.697-43.33 41.29 0.003 81.182 16.886 116.94 48.688zM573.936 182.234c6.393 0 12.62 3.288 16.097 9.192 3.414 5.791 9.455 9.564 16.154 10.090l144.439 11.368c10.277 0.809 17.951 9.794 17.142 20.071-0.769 9.777-8.936 17.202-18.583 17.202-0.493 0-0.988-0.020-1.488-0.060l-144.439-11.368c-18.829-1.484-35.799-12.080-45.386-28.354-5.235-8.879-2.28-20.324 6.606-25.555 2.975-1.754 6.237-2.586 9.458-2.586zM450.064 182.234c3.221 0 6.483 0.835 9.458 2.589 8.882 5.232 11.837 16.673 6.603 25.555-9.588 16.274-26.554 26.873-45.383 28.354l-144.443 11.368c-0.496 0.040-0.992 0.060-1.481 0.060-9.634 0-17.821-7.421-18.59-17.202-0.809-10.277 6.866-19.262 17.142-20.071l144.443-11.368c6.702-0.529 12.739-4.3 16.154-10.090 3.481-5.91 9.704-9.195 16.097-9.195zM653.261 462.909l-61.404-54.615c-26.91-23.931-55.091-36.068-83.764-36.068-26.86 0-53.377 10.706-78.816 31.822l-56.502 46.901-22.826-69.794c-3.677-11.248-13.142-19.605-24.693-21.805l-112.87-21.508c-84.546-16.111-143.381-92.979-136.851-178.797l10.696-140.602c3.518-46.232 42.591-82.443 88.956-82.443h673.635c46.365 0 85.438 36.215 88.956 82.446l10.696 140.602c6.529 85.821-52.305 162.686-136.851 178.797l-112.87 21.508c-12.303 2.346-22.244 11.724-25.326 23.891l-20.164 79.664zM508.090 910.081c107.622 0 194.867-106.997 194.867-238.986 0-131.986-87.245-302.124-194.867-302.124s-194.867 170.138-194.867 302.124c0 131.989 87.245 238.986 194.867 238.986zM390.058 723.756c9.268 0 18.037 5.564 21.678 14.7 19.252 48.312 54.372 76.017 96.357 76.017 12.886 0 23.329 10.443 23.329 23.329s-10.443 23.329-23.329 23.329c-61.177 0-113.403-39.403-139.7-105.402-4.772-11.967 1.065-25.539 13.036-30.308 2.832-1.131 5.751-1.664 8.629-1.664zM372.323 661.344c12.886 0 23.329 10.446 23.329 23.329s-10.446 23.329-23.329 23.329c-12.886 0-23.329-10.446-23.329-23.329s10.443-23.329 23.329-23.329zM508.090 960c-67.338 0-130.013-31.382-176.481-88.37-44.045-54.019-68.306-125.237-68.306-200.535 0-74.379 23.978-158.926 64.139-226.157 48.495-81.178 112.647-125.886 180.647-125.886s132.156 44.708 180.647 125.886c40.162 67.231 64.139 151.777 64.139 226.157 0 75.295-24.257 146.512-68.306 200.535-46.465 56.988-109.14 88.37-176.481 88.37v0z" />
<glyph unicode="&#xe914;" glyph-name="human" d="M854.623 760.709l-131.376 25.031c-33.198 6.327-57.296 35.447-57.296 69.247v54.297c0 27.967-22.752 50.716-50.712 50.716h-206.477c-27.963 0-50.712-22.752-50.712-50.716v-54.297c0-33.797-24.095-62.917-57.29-69.247l-131.386-25.031c-82.027-15.634-139.107-90.207-132.773-173.472l45.978-604.373c2.005-26.279 24.216-46.86 50.57-46.86h757.704c26.36 0 48.568 20.588 50.567 46.864l45.981 604.37c6.331 83.265-50.746 157.838-132.776 173.472zM936.816 591.085l-45.968-604.36h-110.826l-24.494 117.19 85.469 373.903c3.121 13.652-5.421 27.257-19.076 30.375-13.655 3.131-27.257-5.421-30.375-19.076l-86.707-379.31c-0.815-3.564-0.849-7.261-0.101-10.838l23.459-112.246-432.406-0.007 23.459 112.253c0.747 3.578 0.714 7.274-0.101 10.838l-86.707 379.31c-3.121 13.655-16.709 22.201-30.375 19.076-13.655-3.121-22.194-16.723-19.076-30.375l85.469-373.903-24.494-117.197h-110.812l-45.974 604.366c-4.376 57.499 35.041 108.996 91.685 119.797l131.386 25.031c57.087 10.882 98.523 60.959 98.523 119.074l-0.014 54.287 206.464 0.010v-54.297c0-58.118 41.436-108.191 98.526-119.074l131.38-25.031c56.644-10.798 96.061-62.298 91.685-119.797zM511.998 657.465c-11.204 0-20.29-9.087-20.29-20.29v-439.437c0-11.204 9.087-20.29 20.29-20.29s20.29 9.087 20.29 20.29v439.437c0 11.207-9.083 20.29-20.29 20.29z" />
<glyph unicode="&#xe915;" glyph-name="leg" d="M120.773 910.986c1.562 0 3.134-0.141 4.692-0.425l432.387-79.111c62.133-11.368 107.179-65.224 107.179-128.389 0-154.677 0-414.475 0-459.688 1.657-53.346 16.599-62.643 30.627-79.327 83.31-99.092 188.578-102.092 215.114-109.882 8.456-2.483 15.060-9.11 17.498-17.58s0.376-17.599-5.47-24.196l-0.062-0.069c-14.727-16.629-35.848-26.092-57.963-26.092-1.036 0-2.075 0.023-3.114 0.062l-152.403 6.13c-4.169 0.167-8.339 0.252-12.512 0.252-15.965 0-31.918-1.229-47.706-3.683l-18.648-2.895c-4.699-0.729-9.394-1.085-14.057-1.085-29.206 0-57.026 13.998-74.38 38.188-20.125 28.052-19.504 63.554-6.81 95.665 3.339 8.447 9.786 34.989 9.786 34.989 16.335 58.401 13.783 120.472-7.287 177.337l-17.008 42.835c-35.113 88.44-47.39 184.072-36.015 278.122l-362.171-23.497c-0.565-0.036-1.127-0.056-1.689-0.056-6.604 0-12.985 2.509-17.831 7.051-5.261 4.931-8.244 11.819-8.244 19.027v230.236c0 7.738 3.437 15.077 9.381 20.030 4.728 3.937 10.649 6.048 16.704 6.048zM326.077 796.099c10.652 0 20.024 7.738 21.749 18.589 1.908 12.025-6.29 23.321-18.315 25.232l-153.020 24.311c-1.18 0.19-2.349 0.278-3.503 0.278-10.652 0-20.004-7.747-21.729-18.592-1.908-12.025 6.29-23.321 18.315-25.232l153.020-24.311c1.167-0.186 2.333-0.274 3.483-0.274zM384.91 789.724c12.175 0 22.046 9.871 22.046 22.046s-9.871 22.046-22.046 22.046c-12.175 0-22.046-9.871-22.046-22.046 0-12.178 9.871-22.046 22.046-22.046zM120.773 960c-17.537 0-34.613-6.186-48.082-17.413-17.165-14.309-27.010-35.332-27.010-57.679v-230.23c0-20.68 8.653-40.649 23.742-54.791 13.969-13.093 32.205-20.305 51.35-20.305 1.614 0 3.251 0.052 4.865 0.157l306.089 19.857c-2.068-83.065 12.645-166.29 43.364-243.662l16.785-42.282c17.423-47.334 19.449-98.017 5.859-146.603l-0.229-0.814-0.199-0.82c-2.856-11.753-6.483-25.095-7.79-28.663-20.145-51.069-15.55-102.866 12.616-142.129 26.34-36.714 69.031-58.633 114.205-58.633 7.195 0 14.456 0.559 21.576 1.666l18.648 2.895c13.253 2.059 26.774 3.101 40.188 3.101 3.5 0 7.045-0.072 10.538-0.212l152.403-6.13c1.699-0.069 3.395-0.101 5.084-0.101 36.169 0 70.668 15.531 94.652 42.606 17.125 19.334 23.059 45.599 15.939 70.328-7.113 24.709-26.101 43.792-50.785 51.043-6.767 1.987-14.106 3.307-23.402 4.98-38.224 6.875-109.372 19.671-168.012 89.417-2.261 2.689-4.414 5.088-6.313 7.205-8.133 9.064-11.884 13.24-12.815 41.364v458.91c0 86.705-61.979 160.977-147.371 176.602l-432.381 79.111c-4.447 0.814-8.996 1.225-13.515 1.225v0z" />
<glyph unicode="&#xe916;" glyph-name="spine" d="M780.065 872.691h-44.719v52.327c0 12.248-6.23 23.395-16.633 29.799-10.279 6.343-23.362 6.904-34.155 1.454-33.437-16.888-101.168-27.802-172.555-27.802-71.391 0-139.122 10.914-172.574 27.809-10.768 5.431-23.839 4.885-34.13-1.443-10.422-6.423-16.644-17.566-16.644-29.818v-52.327h-44.719c-31.553 0-57.222-25.669-57.222-57.222v-39.769c0-31.553 25.669-57.222 57.222-57.222h44.719v-26.114c0-20.726 12.113-39.82 30.86-48.645 63.251-29.77 171.444-31.279 192.491-31.279 60.787 0 143.256 8.213 192.414 31.265 18.787 8.81 30.929 27.915 30.929 48.678v26.096h44.719c31.553 0 57.222 25.669 57.222 57.222v39.769c-0.004 31.553-25.673 57.222-57.226 57.222zM782.609 775.7c0-1.403-1.141-2.544-2.544-2.544h-72.058c-15.102 0-27.339-12.237-27.339-27.339v-52.855c-41.191-19.068-116.507-25.844-168.666-25.844-52.276 0-127.665 6.769-168.67 25.826v52.87c0 15.102-12.237 27.339-27.339 27.339h-72.058c-1.403 0-2.544 1.141-2.544 2.544v39.773c0 1.403 1.141 2.544 2.544 2.544h72.058c15.102 0 27.339 12.237 27.339 27.339v50.57c42.875-14.049 103.202-22.126 168.67-22.126s125.802 8.078 168.666 22.123v-50.566c0-15.102 12.237-27.339 27.339-27.339h72.058c1.403 0 2.544-1.141 2.544-2.544v-39.769zM773.121 535.125h-37.771v52.327c0 12.069-6.383 23.49-16.633 29.799-10.279 6.343-23.362 6.904-34.155 1.454-33.437-16.888-101.168-27.802-172.555-27.802-71.391 0-139.122 10.914-172.574 27.809-10.793 5.442-23.876 4.885-34.101-1.433-10.283-6.317-16.673-17.748-16.673-29.832v-52.327h-37.779c-35.384 0-64.17-28.782-64.17-64.17v-25.884c0-35.38 28.782-64.166 64.17-64.166h37.771v-26.114c0-20.726 12.113-39.82 30.86-48.645 63.251-29.77 171.444-31.279 192.491-31.279 60.794 0 143.266 8.213 192.414 31.265 18.787 8.81 30.929 27.915 30.929 48.678v26.096h37.771c35.384 0 64.17 28.782 64.17 64.166v25.884c0 35.391-28.782 64.173-64.166 64.173zM782.609 445.075c0-5.231-4.258-9.488-9.492-9.488h-65.11c-15.102 0-27.339-12.237-27.339-27.339v-52.855c-41.18-19.068-116.504-25.844-168.666-25.844-52.276 0-127.665 6.769-168.67 25.826v52.873c0 15.102-12.237 27.339-27.339 27.339h-65.114c-5.234 0-9.492 4.258-9.492 9.488v25.884c0 5.234 4.258 9.492 9.492 9.492h65.11c15.102 0 27.339 12.237 27.339 27.339v50.57c42.875-14.049 103.202-22.126 168.67-22.126s125.802 8.078 168.666 22.123v-50.566c0-15.102 12.237-27.339 27.339-27.339h65.11c5.234 0 9.492-4.258 9.492-9.492v-25.884zM395.779 861.682c-15.102 0-27.339-12.237-27.339-27.339v-105.098c0-15.102 12.237-27.339 27.339-27.339s27.339 12.237 27.339 27.339v105.098c0 15.102-12.237 27.339-27.339 27.339zM395.779 521.507c-15.102 0-27.339-12.237-27.339-27.339v-101.453c0-15.102 12.237-27.339 27.339-27.339s27.339 12.237 27.339 27.339v101.453c0 15.102-12.237 27.339-27.339 27.339zM773.121 196.255h-37.771v52.33c0 12.069-6.383 23.49-16.658 29.818-10.279 6.321-23.351 6.878-34.13 1.44-33.437-16.888-101.168-27.802-172.555-27.802-71.391 0-139.122 10.914-172.574 27.809-10.793 5.442-23.876 4.885-34.101-1.433-10.283-6.317-16.673-17.748-16.673-29.832v-52.33h-37.779c-35.384 0-64.17-28.782-64.17-64.166v-25.884c0-35.384 28.782-64.17 64.17-64.17h37.771v-26.11c0-20.719 12.109-39.813 30.864-48.649 63.258-29.77 171.44-31.279 192.487-31.279 60.791 0 143.259 8.213 192.414 31.268 18.787 8.81 30.929 27.915 30.929 48.678v26.092h37.771c35.384 0 64.17 28.782 64.17 64.17v25.884c0 35.38-28.782 64.166-64.166 64.166zM782.609 106.208c0-5.234-4.258-9.492-9.492-9.492h-65.11c-15.102 0-27.339-12.237-27.339-27.339v-52.851c-41.187-19.072-116.507-25.848-168.666-25.848-52.276 0-127.665 6.769-168.67 25.826v52.873c0 15.102-12.237 27.339-27.339 27.339h-65.114c-5.234 0-9.492 4.258-9.492 9.492v25.884c0 5.234 4.258 9.488 9.492 9.488h65.11c15.102 0 27.339 12.237 27.339 27.339v50.57c42.875-14.049 103.202-22.123 168.67-22.123s125.802 8.078 168.666 22.123v-50.57c0-15.102 12.237-27.339 27.339-27.339h65.11c5.234 0 9.492-4.254 9.492-9.488v-25.884zM395.779 182.636c-15.102 0-27.339-12.237-27.339-27.339v-101.456c0-15.102 12.237-27.339 27.339-27.339s27.339 12.237 27.339 27.339v101.456c0 15.102-12.237 27.339-27.339 27.339z" />
<glyph unicode="&#xe917;" glyph-name="chair" d="M784.552 575.225h-32.066c-7.042 0-13.722-1.566-19.726-4.35l-11.172 312.819c-1.528 42.79-36.264 76.306-79.078 76.306h-261.017c-42.814 0-77.55-33.516-79.078-76.304l-11.172-312.819c-6.004 2.784-12.684 4.35-19.726 4.35h-32.066c-25.952 0-47.064-21.114-47.064-47.064 0-20.706 13.448-38.32 32.064-44.6v-19.53c0-37.088 18.714-71.838 49.296-92.382 5.708-28.962 31.288-50.876 61.898-50.876h129.29v-129.292c0-17.112 13.92-31.032 31.032-31.032h1.032v-98.258h-161.354c-25.952 0-47.064-21.114-47.064-47.064v-32.064c0-25.952 21.114-47.064 47.064-47.064s47.064 21.114 47.064 47.064v32.064c0 6.018-1.148 11.77-3.216 17.064h265.013c-2.068-5.294-3.216-11.046-3.216-17.064v-32.064c0-25.952 21.114-47.064 47.064-47.064s47.064 21.114 47.064 47.064v32.064c0 25.952-21.114 47.064-47.064 47.064h-161.352v98.258h1.032c17.112 0 31.032 13.92 31.032 31.032v129.292h129.29c30.612 0 56.19 21.914 61.898 50.876 30.582 20.544 49.296 55.294 49.296 92.382v19.53c18.618 6.276 32.066 23.89 32.066 44.598 0 25.952-21.114 47.064-47.064 47.064zM352.709-16.938c0-9.41-7.656-17.064-17.064-17.064s-17.064 7.656-17.064 17.064v32.064c0 9.41 7.656 17.064 17.064 17.064s17.064-7.654 17.064-17.064v-32.064zM671.291 15.126c0 9.41 7.656 17.064 17.064 17.064s17.064-7.656 17.064-17.064v-32.064c0-9.41-7.656-17.064-17.064-17.064s-17.064 7.656-17.064 17.064v32.064zM222.388 528.161c0 9.408 7.654 17.064 17.064 17.064h32.066c9.41 0 17.064-7.656 17.064-17.064s-7.656-17.064-17.064-17.064h-32.066c-9.41 0-17.064 7.656-17.064 17.064zM277.241 407.709c-14.376 14.956-22.788 35.106-22.788 56.322v17.064h17.066c17.78 0 33.286 9.914 41.29 24.502 0.1-0.104 0.19-0.214 0.29-0.316 15.048-15.596 35.272-24.184 56.944-24.184h94.894v-34.128h-129.29c-26.36 0-48.984-16.254-58.406-39.26zM529.065 191.482c0-0.57-0.462-1.032-1.032-1.032h-32.064c-0.57 0-1.032 0.462-1.032 1.032v129.292h34.128v-129.292zM688.355 350.773h-352.709c-18.25 0-33.096 14.846-33.096 33.096s14.846 33.096 33.096 33.096h352.709c18.25 0 33.096-14.846 33.096-33.096s-14.846-33.096-33.096-33.096zM494.937 446.967v34.128h34.128v-34.128h-34.128zM769.554 464.031c-0.004-21.216-8.416-41.366-22.79-56.324-9.424 23.006-32.048 39.26-58.406 39.26h-129.29v34.128h33.090c8.284 0 15 6.716 15 15s-6.716 15-15 15h-222.114c-13.456 0-26.012 5.334-35.354 15.016s-14.224 22.42-13.744 35.868l11.452 320.647c0.948 26.564 22.514 47.374 49.096 47.374h261.017c26.582 0 48.148-20.81 49.098-47.376l11.452-320.647c0.468-13.134-4.208-25.66-13.172-35.266-8.944-9.584-21.064-15.12-34.128-15.584-8.28-0.294-14.75-7.246-14.456-15.524 0.294-8.28 7.268-14.772 15.524-14.456 20.762 0.74 40.026 9.426 54.366 24.456 8.002-14.592 23.51-24.508 41.294-24.508h17.066v-17.064zM784.548 511.095h-32.066c-9.41 0-17.064 7.656-17.064 17.064s7.656 17.064 17.064 17.064h32.066c9.41 0 17.064-7.656 17.064-17.064s-7.652-17.064-17.064-17.064z" />
<glyph unicode="&#xe918;" glyph-name="eye" d="M1007.394 496.211c-57.47 73.686-131.912 134.636-215.274 176.256-85.096 42.486-176.642 64.53-272.207 65.686-2.632 0.072-13.2 0.072-15.832 0-95.564-1.158-187.112-23.2-272.207-65.686-83.362-41.62-157.8-102.568-215.272-176.256-22.14-28.386-22.14-68.036 0-96.422 57.47-73.686 131.91-134.636 215.272-176.256 85.096-42.486 176.642-64.53 272.207-65.686 2.632-0.072 13.2-0.072 15.832 0 95.564 1.158 187.112 23.2 272.207 65.686 83.362 41.62 157.802 102.568 215.274 176.256 22.14 28.39 22.14 68.036 0 96.422zM250.484 260.803c-77.84 38.864-147.356 95.784-201.034 164.606-10.374 13.302-10.374 31.88 0 45.182 53.676 68.822 123.192 125.742 201.034 164.606 22.108 11.036 44.684 20.58 67.678 28.66-59.156-53.176-96.426-130.24-96.426-215.856 0-85.62 37.272-162.69 96.434-215.864-22.994 8.080-45.576 17.628-67.686 28.666zM511.999 199.395c-137.084 0-248.608 111.524-248.608 248.608s111.524 248.606 248.608 248.606 248.608-111.524 248.608-248.608-111.524-248.606-248.608-248.606zM974.548 425.411c-53.676-68.822-123.192-125.742-201.034-164.606-22.082-11.024-44.644-20.526-67.61-28.598 59.116 53.174 96.358 130.214 96.358 215.796 0 85.628-37.28 162.702-96.446 215.878 23-8.082 45.586-17.638 67.7-28.68 77.84-38.864 147.356-95.784 201.034-164.606 10.372-13.304 10.372-31.882-0.002-45.184zM511.999 554.393c-58.664 0-106.39-47.726-106.39-106.39s47.726-106.39 106.39-106.39 106.39 47.726 106.39 106.39c0.002 58.664-47.724 106.39-106.39 106.39zM511.999 383.267c-35.694 0-64.736 29.038-64.736 64.736 0 35.696 29.038 64.734 64.736 64.734 35.694 0 64.734-29.038 64.734-64.734 0.002-35.698-29.040-64.736-64.734-64.736z" />
<glyph unicode="&#xe919;" glyph-name="gym" d="M909.018 838.070c-7.188 4.894-15.574 7.48-24.25 7.48-14.294 0-27.63-7.050-35.668-18.858l-7.148-10.498-13.086 8.452c2.322 7.558 2.824 15.61 1.368 23.612-2.394 13.148-9.77 24.576-20.758 32.178-8.406 5.814-18.238 8.888-28.432 8.888-12.298 0-24.008-4.514-33.042-12.446l-12.54 8.098 5.19 7.618c13.382 19.65 8.286 46.526-11.37 59.922-7.192 4.896-15.578 7.484-24.248 7.484-14.296 0-27.632-7.050-35.67-18.858l-30.582-44.916c-13.388-19.65-8.29-46.528 11.368-59.924 7.188-4.894 15.574-7.48 24.25-7.48 14.296 0 27.632 7.050 35.67 18.86l7.144 10.49 11.080-7.156-141.776-204.938h-149.162l-141.736 204.88 11.172 7.214 7.144-10.49c8.040-11.808 21.376-18.858 35.672-18.86h0.002c8.674 0 17.060 2.588 24.252 7.484 19.654 13.39 24.752 40.27 11.366 59.916l-30.588 44.92c-8.040 11.808-21.374 18.858-35.67 18.858-8.676 0-17.062-2.588-24.256-7.484-19.65-13.388-24.75-40.268-11.366-59.916l5.19-7.62-12.614-8.146c-9.040 7.962-20.776 12.496-33.1 12.496-10.198 0-20.028-3.076-28.432-8.89-18.356-12.698-25.576-35.564-19.354-55.852l-12.99-8.39-7.148 10.498c-8.038 11.808-21.374 18.858-35.668 18.858-8.676 0-17.062-2.588-24.254-7.484-19.652-13.388-24.752-40.268-11.368-59.918l30.586-44.918c8.040-11.808 21.376-18.858 35.672-18.858 8.674 0 17.056 2.584 24.252 7.482 19.654 13.39 24.752 40.27 11.366 59.916l-5.19 7.62 11.228 7.252 180.080-260.308c1.812-2.618 3.844-5.034 6.088-7.238v-576.888c0-8.954 7.256-16.21 16.21-16.21h196.064c8.954 0 16.21 7.256 16.21 16.21v576.886c2.244 2.204 4.28 4.624 6.090 7.242l180.12 260.362 11.316-7.31-5.188-7.618c-13.388-19.65-8.29-46.528 11.368-59.924 7.188-4.894 15.574-7.478 24.248-7.478 14.296 0 27.632 7.048 35.672 18.856l30.586 44.92c13.384 19.65 8.286 46.53-11.37 59.922zM713.854 910.846l-30.586-44.918c-1.992-2.932-5.312-4.684-8.87-4.684-2.14 0-4.216 0.644-6 1.856-4.88 3.324-6.146 9.996-2.822 14.878l30.584 44.92c1.998 2.93 5.312 4.682 8.872 4.682 2.142 0 4.218-0.644 6-1.856 4.88-3.324 6.146-9.996 2.822-14.878zM312.96 925.72c1.79 1.216 3.866 1.86 6.008 1.86 3.558 0 6.876-1.75 8.87-4.682l30.586-44.924c3.322-4.878 2.056-11.55-2.82-14.87-1.788-1.216-3.862-1.86-6.002-1.86-3.562 0-6.88 1.752-8.874 4.684l-30.582 44.92c-3.324 4.88-2.058 11.552 2.814 14.872zM175.874 748.654c-1.786-1.216-3.862-1.858-6.002-1.858-3.56 0-6.88 1.75-8.876 4.684l-30.586 44.92c-3.322 4.878-2.056 11.552 2.82 14.872 1.788 1.216 3.864 1.86 6.004 1.86 3.558 0 6.876-1.75 8.87-4.682l30.588-44.926c3.324-4.878 2.056-11.55-2.818-14.87zM795.502 829.274l-189.894-274.486c-1.266-1.83-2.834-3.378-4.66-4.6-4.494-3.010-7.19-8.062-7.19-13.47v-568.3h-69.11v295.962c0 8.954-7.256 16.21-16.21 16.21s-16.21-7.256-16.21-16.21v-295.96h-62.114v568.296c0 5.408-2.696 10.458-7.186 13.464-1.83 1.226-3.4 2.776-4.662 4.6l-189.89 274.494c-5.524 7.986-3.522 18.978 4.464 24.504 2.96 2.046 6.414 3.13 9.988 3.13 5.796 0 11.22-2.838 14.51-7.594l158.192-228.67c3.026-4.376 8.010-6.988 13.33-6.988h166.156c5.322 0 10.306 2.61 13.33 6.988l158.192 228.668c3.29 4.754 8.714 7.594 14.51 7.594 3.574 0 7.028-1.082 9.99-3.13 7.986-5.524 9.988-16.516 4.464-24.502zM893.594 796.398l-30.586-44.922c-1.998-2.93-5.314-4.682-8.876-4.682-2.14 0-4.216 0.642-5.998 1.854-4.88 3.324-6.146 9.996-2.822 14.878l30.586 44.922c1.998 2.93 5.312 4.682 8.872 4.682 2.142 0 4.218-0.644 6-1.856 4.88-3.326 6.146-9.998 2.824-14.876zM508.438 675.238c57.208 0 103.746 46.542 103.746 103.75s-46.54 103.746-103.746 103.746c-57.21 0-103.75-46.54-103.75-103.746 0-57.208 46.54-103.75 103.75-103.75zM508.438 850.316c39.33 0 71.328-31.998 71.328-71.328 0-39.332-31.998-71.332-71.328-71.332-39.332 0-71.332 32-71.332 71.332 0 39.33 32 71.328 71.332 71.328z" />
</font>
</defs>
</svg>
